<svg xmlns="http://www.w3.org/2000/svg" width="513" height="513"><path d="M55.558 155.406l32.325 6.06 220.214-43.436 119.198-12.121 41.416 6.06 27.274 27.275-1.01 18.182-47.477-19.193s-1.977-3.03-11.112-5.05c-42.595-9.42-103.228-3.925-143.442 3.03-28.348 4.903-74.751 19.193-74.751 19.193L124.249 184.7l-19.193 14.143z"/><path d="M221.223 147.325l61.62 16.162 7.07 44.447s1.474 71.117-4.04 106.066c-2.126 13.478-11.112 39.396-11.112 39.396l-55.558 15.152 11.112 22.224 45.457 32.324 16.162-43.436 14.142-62.63 3.03-134.35 3.031-24.244-39.396-23.233z"/></svg>