<svg xmlns="http://www.w3.org/2000/svg" width="513" height="513"><path d="M154.553 75.604l-.505 12.627 10.102 17.172 6.566 6.061-30.305 44.447-62.63 78.287-59.598 62.124-19.193 12.122L0 323.596l38.386-30.81 65.155-60.608 49.497-68.69 23.234-41.922 10.606-7.071V96.312zM139.401 223.086l5.05 18.183-9.09 86.873-5.051 59.094-10.102 26.769 11.112 25.759 9.596-6.566 5.051-51.013 5.556-92.429 4.04-34.85-1.01-17.173zM322.857 30.143l-10.714 5.714 5 12.143-6.429 22.143L272.857 118l-15.714-3.571-10.714-7.858-9.286 12.858L240 151.57l18.571 7.143L280 140.857l98.571-37.143 9.286-2.857-11.428-3.571-40.715 11.428-41.428 10 7.143-14.285L335 70.857 333.571 48z"/><path d="M366.429 73l7.857 20.714 14.821 13.572 18.929 6.25L426.25 108l-1.429-12.143-11.428-10.893-16.964-7.321zM264.464 158l-2.678 5.714 10 16.965-5.893 18.928-17.857 27.5L230 248.714l-19.464 16.25-6.429 9.107 2.679 6.786 13.571-5.536 23.929-25.714 24.643-29.464 19.464-31.964 7.321-8.75-5.357-10.715-19.107-9.464zM380.828 125.859l3.03 35.608 8.839 26.011 6.566-26.011 4.545-19.698-7.576-12.374zM396.232 196.57h21.719l20.96-7.829 29.547 9.849 10.607 12.88-6.566 7.828-29.8-3.788-34.597-1.768-11.365-10.859zM330.32 158.436l-1.01 9.092 7.576 20.203-9.597 27.78s-13.672 28.615-22.223 41.92c-7.92 12.323-16.428 24.476-26.769 34.85-11.268 11.306-37.88 29.295-37.88 29.295l-25.255 18.688-7.07 20.203-8.082 23.233 38.386-34.345 40.406-39.9 16.668-21.719 26.769-33.84 26.769-41.921 7.576-14.648-12.627-32.83zM345.977 238.239L358.1 257.43l-2.525 10.607 10.606 2.02 2.02 5.051-19.697 37.376-27.274 38.89-37.881 33.84L234.86 413.5l-23.233-8.081 4.546 18.688 9.091 7.576 33.335-9.597 53.538-38.386 32.325-33.335 24.244-42.931 16.667-25.254 13.637-17.172-.505-13.132-17.677-14.648-23.74-.505z"/><path d="M236.88 269.553h34.346l30.305 16.668 29.294 29.294 53.033 36.87 73.741 26.265 55.558 14.142v16.667l-23.233 9.597-20.708 6.566-23.739-20.708-39.9-15.153-41.922-20.708-36.87-37.375s-18.02-22.65-28.285-33.335c-7.304-7.604-17.483-15.366-27.249-19.341-12.381-5.04-37.4-4.398-37.4-4.398z"/></svg>