<svg xmlns="http://www.w3.org/2000/svg" width="513" height="513"><path d="M144.286 100.857l24.285 7.857 15 22.143-2.142 17.857-38.572 55.715L89.286 273 53.57 301.571s-11.05 3.11-15.714.715C32.805 299.69 28.571 288 28.571 288l12.143-15.714 16.429-5.715 64.286-71.428 40.714-65-7.857-16.429z"/><path d="M125.714 220.857l15.715 27.857 2.857 45-12.143 46.429 7.143 20.714L151.429 378l7.857-12.143 2.857-50 4.286-42.143-5.715-29.285zM226.429 163l17.857 5 41.428-18.571s7.33-.322 10.585 1.089c2.354 1.02 5.481 2.506 5.808 5.05.606 4.725-11.097 11.04-11.097 11.04l-51.724 24.25-12.857-15.715zM194.96 205.914s22.067 5.14 31.062 9.849c6.464 3.384 17.172 13.637 17.172 13.637s4.347 8.583 5.051 12.627c1.727 9.918-2.778 28.536-2.778 28.536l37.376-22.223-4.799 17.93-24.748 26.77-9.597 5.555-15.657 33.84-6.819-.505-14.647-31.315 4.546-6.06 8.334-3.789s7.615-8.795 9.849-14.647c2.804-7.348 3.535-23.99 3.535-23.99s-.116-11.177-4.293-15.406c-5.054-5.117-21.213-7.828-21.213-7.828zM291.786 96.214s14.852-.786 22.143-2.143c30.98-5.766 60.32-18.472 91.071-25.357 24.866-5.567 75.357-12.857 75.357-12.857l26.072 8.214 9.285 9.643-6.785 11.429-31.429-7.5-47.143-1.429s-23.428.572-34.643 3.572c-12.973 3.47-36.785 16.428-36.785 16.428l-22.143 10-31.072-.357z"/><path d="M383.929 94.071l3.928 14.286-1.071 12.143L366.07 168l-8.928 1.786-5.357 7.143 7.857 8.214 16.428-6.072 18.572-23.571 11.071-34.286 4.643-1.428 2.5-9.643-3.928-6.072z"/><path d="M325.819 144.612l12.038 24.102 3.214 37.143.358 26.786-.715 11.786 12.857-8.572 3.929-30.714 1.61-13.372-1.625-30.59zM391.94 149.85l60.608-12.627 17.425 2.273 14.9 10.102 4.546 11.111-16.415 37.628-4.546 35.356-1.515 32.325 3.03 18.435 11.112 47.477-10.606 35.103-20.406-19.597-2.575-26.365 4.798-17.678 8.334-2.273-3.283-80.054 6.313-39.396 5.556-25.506-13.385-4.546-33.335 10.354-10.859-.505z"/><path d="M381.08 200.105l7.829.758 29.294-10.86 16.668 4.799-2.778 10.354-32.325 13.89-18.183-6.819-2.778-4.798zM384.11 253.896l-1.515 5.808 12.627 7.829 26.517-10.102 9.091-2.525 4.293-10.354-15.405-5.556zM297.49 314l8.081-1.263 6.061 5.051 47.982-7.829 67.68-12.88h26.77l6.566 4.041-5.051 19.446s-5.58 1.52-8.081.505c-2.32-.94-5.051-5.556-5.051-5.556l-28.032 2.273-45.457 6.566s-16.412 2.425-24.496 5.05c-9.885 3.212-17.453 13.817-27.78 12.628-9.769-1.126-23.738-17.678-23.738-17.678z"/><path d="M369.463 334.456c5.848-4.512 19.95 11.364 19.95 11.364l-3.535 11.617-17.425 16.162-10.859 12.627-29.042 21.213-11.87-3.283-1.514-5.05 2.02-11.112s19.697-7.834 27.021-15.153c5.212-5.207 11.449-12.247 15.91-19.445 3.71-5.984 3.71-14.594 9.344-18.94zM435.376 348.345l22.476 30.305 17.172 26.516 10.102 14.9 9.849-.758 6.566-8.838-1.263-12.627-11.87-18.94-11.869-12.88-21.213-18.183-17.172-5.05z"/></svg>