<svg xmlns="http://www.w3.org/2000/svg" width="512" height="512"><path d="M147.482 137.738s9.573 15.69 8.587 24.75c-1.494 13.725-22.224 32.83-22.224 32.83l-50.507 41.92-36.871 30.81-7.576-.505.505-5.556-6.061 1.01-4.04 14.648-4.546 20.203 5.05 1.515 13.132-4.04 126.775-100.51 16.162-17.173 2.525-11.617s.297-17.293-4.04-24.244c-2.3-3.686-10.607-7.576-10.607-7.576zM363.655 117.535s9.342 17.428 16.667 23.739c9.983 8.6 35.356 17.678 35.356 17.678l-29.295 14.142 29.8 3.535s11.71 1.862 17.172 4.041c4.345 1.733 12.122 7.071 12.122 7.071l10.102-2.02s1.748-6.466 1.01-9.597c-2.657-11.273-18.688-29.294-18.688-29.294l-8.081-11.112zM264.155 232.188s5.477 9.395 6.06 14.647c.549 4.924.065 10.423-2.525 14.647-13.082 21.341-23.697 35.456-35.86 48.487-3.683 3.947-13.08-1.314-17.678 1.516-5.46 3.36-6.06 15.152-6.06 15.152s-2.117 18.08 1.01 26.264c2.261 5.92 12.121 14.647 12.121 14.647l14.143-2.525 4.04-11.112 92.934-39.396 4.546.505s14.099 24.936 23.738 35.356c6.268 6.774 21.719 17.172 21.719 17.172l9.091-3.03-1.01-11.617-2.525-14.647s-7.117-11.317-11.112-16.668c-4.72-6.321-15.152-18.183-15.152-18.183l-15.153-13.637-22.728-15.657-12.627-1.515-3.03 1.01 6.06 10.607 11.617 16.667 2.02 1.01-5.555 4.04-72.226 17.679-1.515-4.546 37.375-47.477 12.122-5.051s5.564-8.029 5.556-12.627c-.012-6.633-5.25-12.185-8.081-18.183-.482-1.021-.665-2.287-1.516-3.03-5.492-4.8-20.708-7.071-20.708-7.071z"/></svg>