<svg xmlns="http://www.w3.org/2000/svg" width="512" height="512"><path d="M199 51.37s22.065 8.159 31.315 15.153c6.468 4.89 10.196 13.42 16.162 18.182 9.893 7.896 33.335 18.183 33.335 18.183l17.173-3.03 1.01-5.051s-3.374-19.284-11.112-24.244c0 0-24.427-20.868-39.396-25.253-10.663-3.125-33.335 0-33.335 0zM189.909 170.568l23.233 1.01 112.127-32.324 20.203 6.06 4.04 10.102-23.233 3.03-71.72 13.133-8.082 8.08 14.142 7.072 9.092 15.152-6.061 16.163 3.03 11.111 38.386 2.02 5.05 8.082-6.06 13.132-42.426 12.122-3.031 9.091 8.081 32.325-2.02 15.152 42.426-9.091 29.295 9.091 2.02 13.132-8.081 3.03-34.345-6.06-42.427 9.091-31.314 14.142L200.01 372.6l-15.152-4.04-15.152-19.194-5.051-17.172 21.213 7.07 54.548-15.151 10.102 2.02-9.092-17.173 12.122-8.08v-26.265l-9.091-3.03-18.183 23.233-12.122 3.03-26.264-32.324 8.082-8.081 12.121 3.03 36.366-15.152 2.02-16.163-5.05-38.386-9.092-7.07-29.294 10.1-21.214-12.12z"/><path d="M74.286 194.857l17.857 33.572 5 35 17.143 75.714 20 45.714-2.143 20-7.857 2.143 12.857 29.286 50.714-26.429 88.572-16.428 32.142 1.428L335.714 397l45 15 10-9.286-25-17.143-16.428-10.714-26.429 5-109.286 12.857-60.714 17.143L154.286 397l-20.715-52.143L120 284.143l-2.143-27.857 8.572-32.143z"/></svg>