<svg xmlns="http://www.w3.org/2000/svg" width="512" height="512"><path d="M130 50.571c.714 4.286 12.143 27.143 12.143 27.143L90.714 173.43 30 247.714 1.429 276.286l-.715 18.571 47.143-40.714 35-48.572 43.572-66.428 20.714-37.857 14.286-13.572-.715-17.857zM182.143 65.571c.714 2.858 13.571 15 13.571 15L212.143 82l25 19.286L339.286 212l38.571 32.143L394.286 252l42.857-13.571 26.428 2.142 37.858 2.143-17.858-10-47.857-22.143L306.43 162l-65-77.143-22.858-13.571zM115.714 195.571l4.286 15 16.429 18.572 37.142-17.857 50.715-12.857 31.428-2.858 3.572-7.857-15-12.857L228.57 172l-95.714 30zM97.143 278.429l11.428 17.142 13.572 15.715 14.286 32.857-.715 50 12.143 18.571 8.572 2.857 2.142-22.857-16.428-89.285-6.429-18.572-35-14.286z"/><path d="M133.845 292.04l1.87-7.183 18.333-5.95 46.467-10.101 36.618-10.102 4.799-11.111 40.153 14.142 10.607 13.89-28.032 82.832s-10.384.224-15.152-1.515c-3.641-1.329-9.597-6.566-9.597-6.566l12.122-56.064-10.101-14.647s-13.638 1.515-15.658 1.515c-2.02 0-84.131 22.249-84.131 22.249z"/><path d="M151.523 382.7l6.566-14.142 9.596-1.01 61.115-12.627 11.111-4.545 35.86 15.152v10.101l-11.111-3.535-41.416 7.07-22.224-.504-42.449 14.054z"/></svg>