<svg xmlns="http://www.w3.org/2000/svg" width="513" height="513"><path d="M118.571 56.571l15 28.572L161.43 78l10 2.857s-17.834 45.114-5 51.429l17.142-3.572 14.286-46.428L205 79.429 207.857 68l-8.571-22.143-.715-8.571h-7.857L171.43 53.714l-37.858 6.429z"/><path d="M84.286 159.429l13.571 21.428 13.572 3.572L119.286 173l50-25.714 22.143-5 8.571-8.572-16.429-5-17.142 3.572L105 150.857z"/><path d="M97.857 180.857l13.572 3.572" fill="none" stroke="#000"/><path d="M102.857 198l-3.571 23.571-12.857 27.143-7.858 2.857s2.143 7.858 5.715 7.858c3.571 0 15-3.572 15-3.572l15-30.714 17.857-27.857L119.286 173l-21.429 7.857zM129.286 220.143l12.857 17.143 35-7.143L192.857 228l-7.143 36.429-2.857 19.285-17.143 62.857-7.857 27.858-37.857-10-5.714-1.429 13.571 27.143L141.43 433l15-6.429L210 238.714l4.286-7.143s4.022-6.366 3.571-10.714c-1.043-10.07-17.143-23.571-17.143-23.571l-9.285-1.429-4.286 10.714z"/><path d="M95 283.714c2.143 5.715 12.857 16.429 12.857 16.429l14.286-.714 18.571-15 5-10.715-13.571-3.571-30 10zM101.429 355.143l7.857-8.572 34.285-20 10-15-6.428-3.571-26.429 10.714-24.285 12.857-19.286-6.428-4.286 3.571 10.714 15.715 5 9.285zM279.643 45.857l-1.786 7.5 9.643 19.286 12.857 14.286 28.214-7.5 10-3.215 7.5 10.715-7.142 28.928 6.071 3.214 14.643-1.785 6.428-28.572 4.643-17.857 17.143-11.786 4.286-8.214-18.572-19.643L355 24.43l-4.286 16.785-43.214 8.929z"/><path d="M277.5 127.643c1.786 0 13.929 3.571 13.929 3.571l47.5-15.357 20.714 1.429 9.643 2.5L352.5 131.57s-34.643 14.286-36.071 15c-1.429.715-31.786 10-31.786 10l-5.714-2.5L276.07 128zM245.714 141.571s7.692 7.792 10.357 12.5c3.358 5.931 5.639 12.569 6.786 19.286 1.323 7.745 1.075 15.788 0 23.572-1.202 8.698-3.294 17.464-7.143 25.357-1.94 3.98-7.857 10.714-7.857 10.714l-9.643-1.786 1.072 8.929s.714 11.071 3.571 11.071 16.072-4.285 16.072-4.285 10.036-9.374 13.928-16.072c5.243-9.02 9.367-19.892 11.072-30.714.944-5.999 2.302-12.53 1.428-19.286-.632-4.892-.653-11.658-2.857-16.071-2.303-4.61-5.009-9.122-8.496-12.916-4.057-4.413-14.142-11.111-14.142-11.111zM289.643 201.929c1.786 2.142 17.5 14.642 17.5 14.642l14.643-5L352.5 198l21.071-1.429 15 7.5-6.785 51.429-9.286 46.071-10.714 41.072-10.715 38.571-52.857-21.071-3.571.357 7.143 15.357 14.285 25.714 9.286 24.643 7.857 15.715 13.572-6.072 8.928-12.143 17.857-38.928 21.429-120 13.214-56.429 7.5-11.071-4.643-9.643-24.285-16.072-75.357 23.572z"/><path d="M277.287 261.977l3.535 10.102 19.193 8.08 23.739-9.596 8.081-7.07-7.071-9.597-17.173 2.525-17.677 5.051zM245.972 309.454l15.658 16.163 13.637 15.657 18.182-5.556 20.203-7.07 27.274-4.547h8.082l-7.576-14.647-22.224-3.03-22.728 7.07-23.234 2.526-16.162-3.535z"/></svg>