<svg xmlns="http://www.w3.org/2000/svg" width="513" height="513"><path d="M133.571 146.571l68.572-12.857L281.429 123l87.142-8.571 17.858 5 5 10.714-32.858 4.286-55-4.286-80.714 13.571-45 15-20.714 11.429L129.286 153zM135.714 205.143l28.572 10.714L182.857 248l-3.571 58.571-9.286 7.143-10-23.571L161.429 253zM172.143 202.286l17.143 15L230 209.429 299.286 188l33.571-7.143-25 103.572-10.714-9.286L295 301.57 308.571 323l14.286-21.429 12.857-87.857 20.715-12.143 9.285-11.428-23.571-21.429-37.857 3.572-71.429 17.143z"/><path d="M202.857 250.857l78.572-25.714h15l12.857 13.571-25.715 8.572-51.428 12.143-30.714 1.428zM115.714 328l8.572 35 17.143-9.286 31.25-23.214 75.892-18.929 46.429-10 12.857-17.142-26.428 2.142-62.858 20-38.392 6.25z"/><path d="M212.637 49.845l25.254 6.061 14.142 10.607 6.061 24.748-9.091 35.356-5.556 42.426s-3.689 34.296-4.04 51.518c-.37 18.023 2.02 54.043 2.02 54.043l.505 33.335-8.587 10.607-6.061-18.162 4.859-40.955s1.858-64.341.192-96.447c-.579-11.159-4.146-22.178-3.535-33.335.819-14.97 9.596-43.942 9.596-43.942l-9.091-15.657-18.183-11.617zM108.086 384.206l-8.08 24.748-9.092 16.163-3.536 21.213 11.617 4.546 29.8-22.224 2.02-7.576-18.688-41.921zM241.932 351.376l22.223 32.324 16.667 6.061 33.84-31.314 7.072-17.678-38.891 17.173zM399.515 305.414l48.488 24.748 26.769 12.122 3.03-31.315-43.941-10.606zM206.071 423.602c4.657 12.926 21.054 15.679 33.84 20.708 26.041 10.241 83.338 10.101 83.338 10.101l112.632 1.01 14.647-8.586-9.091-16.668-22.729-7.07-26.769-52.529-7.576-4.04 6.061 65.155-73.741 7.07s-37.182-.522-55.559-3.03c-18.618-2.54-60.86-28.239-55.053-12.121z"/></svg>