<svg xmlns="http://www.w3.org/2000/svg" width="513" height="513"><path d="M134.286 178.714l15 5 82.143-17.857 42.857-15.714 11.428-15L310 137.286l-1.429 23.571-22.857.714-69.285 20.715-60.715 24.285L135 187.286zM85 145.857c4.395 5.764 12.672 18.63 20.987 27.204 9.029 9.31 17.975 14.199 18.656 16.368l3.571 20-17.5 71.785-17.5 42.857s-16.615 34.136-29.643 47.5c-10.255 10.522-36.785 24.286-36.785 24.286L10.357 388l16.429-12.857L45 359.429s27.721-30.248 37.143-48.215c11.435-21.806 19.381-45.933 22.5-70.357 1.631-12.773 1.025-26.09-2.143-38.571-4.18-16.466-18.678-29.231-21.786-46.072C80.038 152.55 85 145.857 85 145.857zM136.429 240.143l12.142 2.5L202.857 223l8.214-8.214 22.858 1.785 3.214 9.286-10 10.714-54.286 16.786-8.928 13.572-11.429 2.5-6.429-8.215-12.142-6.071z"/><path d="M110.714 281.214l13.215 7.5 12.5 57.5-4.286 9.643 12.143 20 12.143-2.5 1.071-16.071L155.357 308l-11.786-25-22.5-15.357-16.428 5z"/><path d="M143.571 297.286L195 279.429l24.286-17.858 11.071 1.786 21.429 19.286-13.572 16.071L215 338.357l-2.5-10 6.071-36.071L212.5 288l-57.143 20-15 1.429z"/><path d="M150.714 344.786l51.786-15 28.214-4.643s14.567.322 13.929 7.857c-.605 7.142-18.929 5.714-18.929 5.714L185 349.071l-41.429 7.143zM189.909 56.411l12.122-7.071 30.81 27.78 12.626 13.636-5.556 26.77 6.566 30.304s14.275 45.734 24.749 67.175c19.747 40.424 44.12 78.738 71.216 114.652 14.787 19.6 49.497 54.549 49.497 54.549s48.611 38.04 47.982 55.053c-.163 4.416-21.718-10.607-21.718-10.607s-19.32-16.69-28.284-25.759c-24.395-24.68-48.092-50.234-69.196-77.781-14.937-19.498-28.4-39.685-40.406-61.62-15.219-27.806-40.406-87.883-40.406-87.883l-22.223-65.155-14.647-38.386-15.658-10.606zM309.107 67.018l52.023 16.667 21.718 15.658 4.546 17.677-13.638 4.546-35.86-20.708-20.708-6.566z"/><path d="M319.208 156.921l11.617 41.922-6.061 46.467-25.254 74.75-19.698 34.851-19.193 5.556-16.667-5.05 16.162 19.697 26.77 18.688 17.172 3.536-8.081-18.688 3.535-13.637 14.647-42.932 30.81-79.802 8.081-22.728-28.789-62.63zM96.975 379.155L86.368 389.76l-9.596 24.75-7.071 5.05 4.545 24.244 10.102 5.05 11.111-9.596 3.536-31.315zM120.208 382.185l9.597 27.274 20.203 22.224 24.748 16.162 42.932 6.566 46.972-1.01 25.759-8.081-26.77-13.132-15.657-3.536-32.83 8.587-34.345-5.051-31.314-19.193-17.678-28.284zM174.756 368.548l19.193 22.224 21.719-7.072-3.536-18.687 6.06-10.607-20.202 12.627z"/></svg>