<svg xmlns="http://www.w3.org/2000/svg" width="513" height="513"><path d="M43.437 170.558s1.17 9.789 2.567 14.49c2.173 7.31 5.39 15.286 11.106 20.335 2.05 1.812 5.747 2.974 5.747 2.974l24.643 5.357s5.415-6.929 5.714-11.071c.264-3.642-3.571-10.357-3.571-10.357zM21.071 287.643l9.286 3.928 56.786-19.642 25-12.5.714 6.071-5 1.429h-4.286s-11.011 13.044-18.214 19.285c-3.443 2.984-8.128 6.136-12.143 9.643-3.711 3.243-8.4 8.254-11.428 12.143-2.342 3.007-5.177 5.86-7.143 8.929C52.197 320.745 50 328 50 328l-12.143 6.071-11.786-12.5 1.072-7.142L16.07 298z"/><path d="M90.357 67.286s7.204 9.66 11.429 13.928c4.042 4.084 9.306 6.859 13.214 11.072 4.583 4.94 10.024 12.213 11.786 19.643 2.203 9.293-2.143 28.571-2.143 28.571l-12.5 105-.714 85.714-11.786 30.715 16.428 67.5 8.929 2.857 8.214-17.5-5.357-30.357-8.928-73.215 2.5-73.214 12.5-96.786 3.928-17.857S150.311 109.227 150 99.43c-.265-8.358-11.429-21.786-11.429-21.786l-27.142-15zM215.714 168L225 184.071l7.5 9.643 11.071 3.929 13.929-10 18.214-12.5 45.357-11.786L334.286 158l3.214-11.429-23.214-6.428-78.929 26.786zM192.857 230.5l14.286 5.357 53.214-13.214 68.572-15 22.5 6.071-2.858 8.215-76.785 22.857s-23.139 11.741-42.5 21.785C224.87 268.861 220 275.5 220 275.5s6.786 2.5-3.929-.357c-14.358-3.829-27.857-41.786-27.857-41.786z"/><path d="M254.053 24.591l-2.525 9.597 12.627 35.86-2.02 82.328-3.536 39.9 2.525 2.526-2.525 11.112-10.607 65.154s-10.415 33.596-18.687 48.993c-6.568 12.223-24.244 33.84-24.244 33.84l-43.942 23.739-23.738-3.536-9.597-9.596-11.111 1.515 4.545 14.647 17.678 5.556 31.82 6.06 31.82-16.667s11.642-8.154 16.667-13.132c9.359-9.27 24.749-30.81 24.749-30.81l13.132-33.84 6.06-40.91 9.092-39.397-4.04-12.121 4.04-11.112-2.02-7.576 5.498-11.578 1.068-42.97 6.06-45.457 2.526-26.264 6.566-8.587-6.06-14.142z"/><path d="M272.236 266.018l47.982 54.043 42.932 40.911 33.84 20.203 11.112 9.597 13.637 5.555 9.091-10.101 44.952-5.05 34.345-11.618 1.01-7.07-16.667 4.545-49.498-9.091-41.416-16.163-9.597-13.132s-8.586 3.536-12.121 3.536c-3.536 0-41.922-19.698-41.922-19.698l-30.81-19.193-24.748-23.234-8.586-11.111-12.627-2.02z"/></svg>