<svg xmlns="http://www.w3.org/2000/svg" width="512" height="512"><path d="M60 218.429s99.503-38.239 142.857-47.858c5.976-1.325 7.857 5 7.857 5s3.572 3.978 3.572 6.429-3.572 6.429-3.572 6.429-38.678 9.228-57.143 16.428c-5.456 2.128-10.398 4.686-15.714 7.143-11.04 5.103-23.492 8.195-33.571 15-7.535 5.087-10.198 16.674-19.286 16.429-12.472-.337-25-25-25-25z"/><path d="M138.571 282.714l.715 87.143-.715 25 .715 10L137.857 437l-25.714-15.714-1.429 3.571 16.429 35.714 14.286 47.143 10.714-5L155 483.43 150.714 427l2.143-147.143L154.286 262l10-30.714-3.572-25 3.572-25L171.429 142l6.428-4.286.714-27.143L172.857 97l-6.428-11.429L135.714 77l8.572 17.143 2.857 5L152.857 162l-2.143 25.714L145 212l1.429-4.286 4.285 18.572"/><path d="M150.714 226.286l-21.428 40L110.714 287l-20 21.429-26.428 22.857-30 18.571L-1.43 357l2.858 14.286 22.142 5 29.286-6.429L76.43 353.43l24.285-20.715L127.143 302l11.428-19.286M154.286 262l15 10s11.496 16.053 14.285 22.857c1.687 4.116-1.553 6.609 0 9.286 1.927 3.32 6.192 5.23 10 5.714 2.693.342 7.858-2.143 7.858-2.143l9.285 5 8.572 5 2.857-8.571L220 300.57l-10.714-15.714-15.715-14.286-15-7.857-10.714-7.857-7.143-6.428zM270 157l15-2.143 10.714 2.857 5-5L436.43 128.43l5-2.143 12.142 2.857 7.858 7.143 1.428 11.428L449.286 152 430 154.143l-105 13.571-22.143 12.143L270 164.143zM262.857 236.286L265 247l15 15s6.703 9.056 8.571 14.286c2.754 7.705 2.975 16.125 3.572 24.285.642 8.786 0 26.429 0 26.429s-2.148 9.27.714 12.143c2.694 2.704 8.555 3.227 11.429.714 5.031-4.4 1.428-20 1.428-20v-30.714L302.857 267l-11.428-15.714-12.858-12.143zM295 214.857l8.571 16.429 11.429 5 80-25 15 2.143.714 21.428L391.43 322l-5.715 14.286 10 16.428 7.857 2.143 3.572-13.571V330.57l29.286-97.142 6.428-15.715-2.857-7.143-16.429-11.428-21.428-1.429-92.857 18.572z"/><path d="M317.857 275.571l53.572-21.428 12.142 4.286.715 12.857-42.143 18.571-6.429 5.714-14.285-10.714zM280 338.429L278.571 352s5.068 12.403 10.715 14.286c5.647 1.882 17.143-5 17.143-5l5-5s11.428-4.286 15-5c3.571-.715 35.714-10 35.714-10l23.571-5L391.43 322l-18.572-2.857L325.714 332l-20 7.857zM195 412.714l47.857-6.428L322.143 392 385 388.429l72.857-.715 26.429-5 22.857 6.429L513.57 397l-1.428 18.571-23.572-7.142L465.714 402 425 397.714l-40.714-2.857L343.57 397l-29.285 5.714-35.715 7.143-39.285 14.286-20.715 11.428-12.142-4.285z"/></svg>