<svg xmlns="http://www.w3.org/2000/svg" width="513" height="513"><path d="M43.437 117.02l45.456 11.112 164.655-43.437h27.274l4.041 5.051-37.376 13.132-112.127 36.366-40.406 17.172-51.517-28.284z"/><path d="M129.3-.157l19.192 29.294 27.275 13.132 16.162 33.335 21.213 84.853s26.672 78.71 44.447 116.167c11.316 23.847 49.497 84.853 49.497 84.853l94.955 89.904 47.477 35.355 9.091-16.162-17.172-34.346 6.06-66.67 3.031-21.213-22.223 56.569s-11.706 18.465-21.214 19.193c-17.692 1.353-30.072-18.633-43.436-30.305a358.71 358.71 0 0 1-56.569-62.63c-18.569-26.205-34.211-54.592-47.477-83.842-18.121-39.957-32.423-81.78-43.436-124.249C209.225 96.29 202.03 41.26 202.03 41.26L199 28.127l-1.01-16.163-21.213-13.132z"/><path d="M78.792 224.096s19.398 1.44 28.66-.922c21.791-5.558 60.233-30.392 60.233-30.392l20.203-15.153 25.254 6.061 16.163 3.03-9.092 15.153s-32.966 5.277-48.487 11.112c-18.614 6.998-52.528 28.284-52.528 28.284l-24.244 13.132s-12.16-10.883-15.152-18.183c-1.537-3.752-1.01-12.122-1.01-12.122z"/><path d="M103.929 241.929l10.714 19.285 13.214 10.715 6.786 15.357-2.5 56.785-1.786 15 12.5 18.572 7.5-18.214 2.143-60.715 2.857-26.071L160 258.357l-56.071-18.571zM158.571 246.214l19.286 20.357 8.572 13.929 12.142-4.286 10 2.857 2.5-19.285-36.428-13.572zM43.571 281.929c.317-3.784 7.858-11.429 7.858-11.429s13.152 8.267 19.285 13.214c6.455 5.206 15.346 10.472 17.143 20 2.561 13.58.357 30.715.357 30.715L82.143 363l-3.572 11.429-9.285 8.214-.715-18.572V323s-1.355-11.648-3.928-16.786c-3.481-6.95-15-17.857-15-17.857s-6.375-2.807-6.072-6.428z"/><path d="M18.929 388.357l8.928 4.286s45.409-27.33 69.643-37.857c18.3-7.95 56.786-18.929 56.786-18.929l36.428-6.428 37.5 9.642v10.358l-11.785 4.642-28.572-5.357L158.571 353s-29.204 5.546-43.214 10.357c-13.292 4.565-26.236 10.375-38.387 17.435-9.34 5.426-26.256 18.994-26.256 18.994l-16.428 12.857-17.143-11.072z"/></svg>