<svg xmlns="http://www.w3.org/2000/svg" width="513" height="513"><path d="M48.571 65.857s21.27 11.74 30 20c1.73 1.636 4.286 5.714 4.286 5.714L75 103l31.429 8.571s7.05-18.54 1.428-25.714c-5.295-6.757-25-19.286-25-19.286zM19.286 167.286v11.428l9.285 12.143-7.142 28.572s12.962-6.525 20-7.858c6.55-1.24 20 0 20 0l2.857-11.428s-12.32-18.876-21.429-25c-6.873-4.621-23.571-7.857-23.571-7.857zM65.714 310.143l-33.571 59.286-13.572-3.572-1.428 3.572 10 20 20 6.428 14.286 15 10 5.714L78.57 408 66.43 381.571zM204.286 41.571s31.9 18.657 45 31.429c4.023 3.923 6.352 12.139 11.785 13.571 5.926 1.563 11.882-.467 15-7.5 3.604-8.126 2.428-14.239-3.571-20.714-10.361-11.184-28.365-15.515-45.357-16.786-5.979-.447-22.857 0-22.857 0z"/><path d="M128.571 88.714l17.143 46.072s3.152 4.606 6.429 3.571c6.76-2.135 17.5-17.143 17.5-17.143l26.428-17.5 56.072-20.357 69.643-13.928 54.285-1.072L405 80.143l15.714 16.786h10L435 85.857l-6.429-11.071-10-10L394.643 53l-15.714-.714-93.215 16.428-90.357 23.929s-32.244 18.107-43.571 13.571c-9.935-3.977-23.215-17.5-23.215-17.5z"/><path d="M184.353 131.162l13.637 34.346s9.596 15.657 13.132 15.657c3.535 0 9.091-10.607 9.091-10.607l8.587-36.365 1.515-5.556-22.729 10.607zM250.518 135.203s12.28 9.78 14.856 15.928c3.404 8.122 2.065 20.277 1.464 31.515-.8 14.974-1.673 28.318-1.673 28.318s-5.155 12.98-4.903 19.55c.318 8.299 5.963 6.16 8.944 9.24l10.606-3.536s-.218-48.153 2.291-73.113c.875-8.706 3.265-27.902 3.265-27.902L315.673 115l-2.526-15.152-17.677-8.082-7.071 4.546 2.525 7.071-16.163 33.84s-14.406-5.693-19.943-5.556c-3.094.077-4.3 3.536-4.3 3.536zM168.214 193s9.883 7.315 15.715 7.857c10.355.963 30-8.571 30-8.571s8.208-2.702 11.785-1.786c6.217 1.593 10.207 9.624 11.072 16.071 1.005 7.501-7.5 21.429-7.5 21.429L212.5 257.286l-9.286 4.285-6.428-17.857c.844-3.103 5.752-3.37 7.5-6.071 3.545-5.48 5.52-11.532 5-18.214-.231-2.975-2.5-7.858-2.5-7.858l-17.143 3.572-7.5-1.072-11.072-4.285-5-5.357s-1.323-13.162 2.143-11.429zM159.286 226.214s4.374 5.725 4.285 8.929c-.378 13.648-6.818 25.045-12.5 37.143-6.372 13.57-23.214 38.214-23.214 38.214l-12.143 12.143-3.214-6.429L111.071 303l-15 45.714.358 7.143L112.143 348l35.357-48.214 20.357-37.857s5.044-12.968 8.572-18.929c1.212-2.049 4.285-5.714 4.285-5.714 4.724-6.298-21.428-11.072-21.428-11.072zM346.786 120.5s5.068 6.524 5 10.357c-.132 7.401-5.592 13.98-10.357 19.643-6.776 8.053-14.104 12.249-20.358 20.714-3.021 4.09-10 12.857-10 12.857l-.714 6.786 11.786-2.5L344.286 168l15-14.643 11.428-6.428 10-1.786-.357-10-13.928-14.286-11.072-5z"/><path d="M301.071 183.714L298.214 228l6.072 10.714 14.643 17.143 15-8.571 14.285-18.572L365 200.143l-2.857-3.572L344.286 213l-30 17.857-6.072-4.643 10-26.785zM348.571 185.857L386.43 210.5l37.142 29.286 44.643 39.285 24.286 14.643v-13.928L471.071 250.5l-25-18.214-31.785-19.643s-23.372-12.086-36.429-17.143c-9.104-3.526-29.286-9.643-29.286-9.643zM189.643 286.571s11.236 11.645 13.571 19.286c3.758 12.297 0 39.286 0 39.286S199.13 376.78 195 391.57c-1.648 5.903-5 16.072-5 16.072l-20.714-7.857s2.002 8.051 2.5 11.071c1.053 6.387 5.275 11.871 6.785 17.143 1.941 6.777 2.5 18.571 2.5 18.571l5.715 6.072 8.571-13.929 9.286-37.857 9.286-62.5 2.142-21.786-8.571-24.285z"/><path d="M339.286 255.143l8.571 101.428L350 403.714 325 418l26.071 23.571s12.858 19.643 14.643 19.643c1.786 0 6.786-23.928 6.786-23.928l-13.214-160 5-19.643-6.072-16.072-24.643-5.714zM241.071 283l-2.5 10 3.572 12.143 6.071 2.857 28.929-15.714s31.786-8.929 33.214-9.286c1.429-.357 12.5-6.786 12.5-6.786l-5.357-4.643-18.929-7.857-43.214 22.857z"/><path d="M225.357 339.786l18.214.357 63.929-20.714 17.5-3.572L341.071 323l-2.142 7.857-19.643 3.214-32.857 7.5-35.358 15.358-7.857 8.214-12.5-4.643-4.643-12.857z"/></svg>