<svg xmlns="http://www.w3.org/2000/svg" width="513" height="513"><path d="M90.914 67.523l3.211 11.145 13.456 13.098-2.02 11.112L125.764 115l10.102.505.505-17.678-10.607-20.203zM56.569 149.345l-4.041 16.163 5.05 16.162 11.112 17.173s12.524 15.189 21.214 15.152c4.58-.02 11.111-8.081 11.111-8.081l-5.05-18.183-14.143-13.637s-9.534-5.976-14.647-11.617c-2.987-3.296-10.606-13.132-10.606-13.132zM68.185 314.505l1.01 26.264 29.8 38.386 12.122-5.051 5.556-35.86 14.142-25.76s1.584-5.68 1.515-8.586c-.127-5.349-3.536-15.657-3.536-15.657s-8.243 7.925-12.121 12.122c-6.16 6.665-17.678 20.708-17.678 20.708l-9.091 2.02zM236.429 73.714l10.714 21.429 13.571 45.714 9.286 5.714L278.571 133l-6.428-31.429z"/><path d="M201.429 116.571L227.143 113l30-7.143 19.765 3.082 5.935 3.788-3.788 4.167-29.421.631-25.759 16.036-10.354 5.304-12.627-14.269zM313.214 91.571l17.5.358 51.072-8.215 10.714-3.571 30.714 11.071-5.714 11.429-35 2.857-43.929 6.429-23.928-13.572z"/><path d="M340.714 33l5.357-4.643 21.072 5 12.143 19.286L358.214 83l-27.857 48.571-6.428 14.643-18.572 19.643-13.214 4.286 12.143-21.786 22.143-35 17.5-52.857 4.642-15.357zM216.071 190.143l-1.785 8.928s7.098 5.877 9.643 9.643c4.419 6.541 6.04 14.59 9.285 21.786 1.139 2.524 3.572 7.5 3.572 7.5l7.857-3.929s9.73-3.204 0-22.857c-2.442-4.932-5.923-11.304-10-15-3.058-2.772-10.357-6.785-10.357-6.785z"/><path d="M241.429 181.214l14.285 13.929 38.215-11.429 33.928-7.857s9.236.988 12.857 3.572c1.882 1.342-.284 3.777 0 6.071 1.094 8.822-5.357 24.643-5.357 24.643l3.214 3.928L350 212.286l7.5-16.072s6.366-11.989 11.786-15.357c7.298-4.536 20.6-.556 22.5-8.928 1.787-7.881-15.357-16.786-15.357-16.786l-16.786-1.429-25.357 10-58.929 5.357z"/><path d="M220 239.429l-3.214 11.428 8.571 7.5 16.429-6.786 25-11.428 34.643-13.214 27.142-2.858 30 5.715 10.358 1.785-2.5-13.571L350 212.286l-22.857-2.143-34.286 3.214-25.357 5.357-42.143 16.786zM203.929 285.143l27.5-6.429L267.5 268l43.571-10.714 8.572-8.215L349.286 258l13.571 8.929-1.786 7.142-23.214 1.072-35 2.5-34.286 5.714-30.357 10-11.071 6.429-18.214.357zM144.643 345.857l45-8.928L255 315.143l84.643-13.214 66.786.714s21.516 2.656 31.428 9.643c3.725 2.625 10.326 6.466 11.429 10.357 1.025 3.616-6.429 8.214-6.429 8.214l-9.286 3.214L400 320.5l-42.857-2.143-66.429 5.714-53.571 10.715-23.572 7.857-30 23.928-35.714-13.928z"/><path d="M274.92 215.29c.445 15.831-2.375 31.456-5.968 45.93-2.32 9.345-2.434 19.325-2.88 27.805-.646 12.267-2.61 12.287-4.041 18.633-4.263 18.895-19.531 47.485-19.531 47.485l-25.714 28.928-9.643 2.143 8.571 10.357 16.786-10.357 22.5-26.428 16.071-36.072L275 302.643s9.185-44.747 10.714-69.286c.245-3.928 1.42-8.478-.714-11.786-2.627-4.072-10.215-11.124-10.08-6.28zM344.21 372.589s6.958 21.544 12.879 31.062c3.844 6.18 14.395 16.415 14.395 16.415l14.394 13.637 10.354.758-4.293-17.678-8.081-24.244-12.88-15.152-19.445-17.678z"/></svg>