<svg xmlns="http://www.w3.org/2000/svg" width="513" height="513"><path d="M145 113l-24.286 33.571L104.286 168l-20 12.143h-15L55 198.714l-.714 23.572L70 224.429l25.714-10 56.429-17.858L150 182.286l-52.143 2.143 29.286-28.572 17.534-25.105z"/><path d="M170.714 136.571l5.715 7.858-14.286 25.714-36.786 47.143-28.928 24.643-20 8.214-9.643 14.643s-2.217 11.832.714 16.071c3.35 4.845 14.643 3.572 14.643 3.572l37.857-20s21.658-6.517 32.143-10.715c8.306-3.325 24.286-11.428 24.286-11.428s9.988.064 13.571-2.857c4.628-3.774 7.143-16.429 7.143-16.429L185 210.143l-16.429-3.572-7.857 9.286L160 229.43l-2.857 7.857-33.572 8.571-5.714-4.286L155 203.714l31.071-35 15.358-27.857-7.858-9.643-10-3.928z"/><path d="M146.429 257.286L130 279.429l-20.714 19.642-32.5 30.358-8.572 6.071-26.071 7.5-18.214-.357 8.571 12.143 16.429 13.928 12.142 7.143 51.429-34.643 37.857-18.571 13.929-7.143-.357-5.357-26.429-3.214-12.5 11.428-5-1.786 17.143-18.214 17.5-17.857 14.643-20.357 8.571-10 9.286-8.572-11.786-7.857zM273.214 73.714s7.016 2.739 10.715 3.215c6.616.85 17.421-.399 23.928 1.071 9.557 2.158 15.587 6.986 22.5 13.929 3.118 3.131 2.736 6.651 3.214 10.357.444 3.438 1.472 6.785-.357 9.285-2.69 3.679-12.857 4.643-12.857 4.643l-9.286-10.357-14.642-10-17.5-7.143L270 77.643z"/><path d="M238.214 126.214l8.929-3.214 20.714 6.071 17.857-2.142 101.429-29.643 10-1.429 20 7.5c5.553 2.083-11.072 11.429-11.072 11.429L390.714 113s-44.452 10.525-66.785 18.214c-7.304 2.515-23.215 7.857-23.215 7.857s-4.466-.28-8.571 1.786c-7.444 3.746.437.495-19.286 17.5-9.22 7.95-23.928-16.071-23.928-16.071L237.5 131.214zM262.143 168l25 8.929 8.928 8.571-2.5 16.071-14.285 6.786-6.786-2.143-1.429-13.928-10.714-15.715z"/><path d="M340 145.857l-1.786-6.786 3.215-2.142L359.286 143l10.357 10.357-15.714 21.786-9.286 15.357-23.572 3.929 7.143-16.786L335.357 158z"/><path d="M197.5 232.286l10.714.357 53.929-20.714 47.857-15s36.57-13.67 55.714-16.786c11.756-1.913 35.715-1.072 35.715-1.072l37.142-.714s13.178-2.412 15.911 1.736c3.31 5.024.233 11.442-4.842 14.673-7.29 4.643-19.896.983-27.876.368-9.955-.768-27.3.173-27.3.173l-61.619 6.566-51.06 17.198-44.4 20.683-24.748 9.596-15.152-7.576-7.829-6.187zM211.071 268l13.215 19.643L235 309.07l-1.071 30.715.357 11.428L247.5 371.93l6.071-15v-18.215L251.786 303l-3.572-15.714-25.714-22.143-9.286-1.072zM236.071 259.429L255 277.643l15.714 5 16.072-11.786 7.143 9.286-.358 22.143 4.643 9.285 9.643-8.571 5.714-20.714 5.358-20 15-10.357-1.072-6.072-22.143-12.5-7.5-.357-7.857 5.714-3.928 9.643-31.072 10-20.714-2.857z"/><path d="M241.071 331.571l12.143-13.214 39.286-11.964 26.25-5.357 19.107 4.464 5.893 8.571-8.036 7.143-25 1.429-19.643 2.143-21.785 9.643-22.5 9.642-7.143-5.714z"/><path d="M351.786 207.643l2.143 36.428 2.5 39.643-.358 32.143 2.5 40.357-.357 36.786-.714 14.643-36.071-12.857 12.931 19.724s7.025 12.862 9.597 19.698c2.703 7.187 6.06 22.223 6.06 22.223l8.587 12.122s10.903-12.518 14.647-20.203c4.783-9.814 10.102-32.325 10.102-32.325l-3.03-38.385-3.536-113.643-1.01-37.375z"/></svg>