<svg xmlns="http://www.w3.org/2000/svg" width="513" height="513"><path d="M99.5 59.947l28.79-10.607 23.233 16.162 17.172 18.183-4.04 16.163-17.173-1.516-22.728-17.677zM.505 166.518l76.267-22.729 96.47-26.264 20.707-3.03 26.264 6.566-8.081 10.101-26.769 1.01-58.589 8.082-104.046 32.83L3.03 189.246l-7.07-10.101zM93.944 212.48l45.457-19.698 18.688-3.03 10.101 6.06-11.111 12.122-23.739 5.556-27.274 14.647-17.678-7.576zM63.135 267.028l20.203 7.07 45.962-20.707 20.708 4.04-1.01 15.153-64.65 27.274-16.163-9.092zM32.325 328.142l24.244 28.284 16.162 30.81 6.06 39.901 4.042 8.586 13.131 8.082 5.556-9.597-11.616-64.65-8.587-25.253-27.274-13.638zM106.571 330.667L154.048 314l20.203.505 8.082 10.607-4.546 15.657-12.122 5.05-13.132 24.75-9.091 13.131-9.597-14.647 4.546-11.616-5.556-13.132-15.152 8.586-14.142-8.081z"/><path d="M71.216 396.075l31.82-10.102 49.497-15.405 20.96 3.031-6.06 15.91-20.456-.253-41.921 16.668-33.335-4.293zM249.286 73.714L245.714 103l15 23.571L250 152.286l-16.429 13.571L225 176.571l11.429 5.715 40.714-28.572 8.571-28.571-23.571-33.572zM392.143 54.429l-.714 22.857 20 30.714L445 135.143l12.143-9.286-15-27.143L409.286 73zM307.143 153.714l-7.857 36.429L260 251.57l-9.286 7.858L232.143 258 225 248l-4.286 17.857 17.143 29.286L290.714 263l30-5.714 42.143-23.572 30.714-10 .715-15-23.572-12.143-17.143-7.857-6.428 17.143-9.286 27.857-46.428 12.143 30.714-47.143 15.714-12.143-11.428-26.428z"/><path d="M329.815 245.815l-18.183 29.294-32.83 39.396-54.043 54.548-37.88 37.881-18.184 10.102-4.545-8.587-7.071 10.607-9.597 32.325 1.01 9.091 9.092 6.061 65.155-73.236 68.69-76.267 16.668-14.142 26.263-6.566-3.03 40.406-1.01 50.508 5.556 16.668 14.647 14.142 30.305 10.101 75.761 5.556 43.437 3.536 33.545.761 8.572-8.571-2.857-27.858-6.429-20.714L525 401.571l-7.143 14.286L505 418.714l-105-2.143-41.674-22.07-9.581-26.552 13.398-63.52 19.286-12.858-.715-10-10-1.428L347.857 278l-22.143 11.429L310 290.857l28.214-33.571 12.143-19.643z"/></svg>