<svg xmlns="http://www.w3.org/2000/svg" width="513" height="513"><path d="M142.432 118.03l32.559 24.417 13.655 22.555s-3.217 49.267.505 74.247c1.94 13.016 14.618 24.997 11.886 37.647-1.076 4.983-13.149 7.81-13.149 7.81l-17.172-25.254 1.01-25.254-3.03-45.457-10.102-29.294-14.142-20.203zM177.143 107.643l18.571 11.786 10.715 10.714 20-11.072s19.909-10.082 30.357-13.928c15.207-5.598 46.785-13.214 46.785-13.214s20.163-2.07 31.072-1.786c5.556.144 17.857.714 17.857.714l3.571 12.5-4.642 41.429-5 29.285-2.858 39.643-5 26.429v18.571l-15.357-3.928 12.143 17.5 5 11.428 12.5-7.857 7.5-33.571L377.5 126.57l3.571-18.214 6.786-7.5-7.5-18.571-19.286-13.929-11.428-2.5-18.572 5.714s-40.52 6.412-60.714 10c-18.137 3.224-54.286 10.358-54.286 10.358L183.571 103z"/><path d="M188.214 256.214l9.286-6.428 15.357 4.285 36.429-8.214 52.143-8.214 10.357-5.714 26.785 8.214 10 7.5 2.5 13.928-20-.892-15.178-5.358-31.429.179-23.34 2.436-33.84 8.334-16.415 5.556-14.9 8.839-14.142-9.344-3.535-6.566zM207.839 143.79l20.708 7.575 6.06 7.577v19.445l-.757 23.233-.252 20.961-9.597 10.86-5.303-15.658v-31.567l-1.768-13.132z"/><path d="M221.728 154.396l24.497-8.839 17.677-6.566 9.344-6.566 10.607 3.03 17.172 5.556 4.294 4.293-9.092 20.961-5.808 23.234-4.293 8.586-12.627.505-2.02-5.808 3.788-19.95 1.262-8.335-3.283-6.566-19.95 2.778-18.688 7.071-11.112 1.768z"/><path d="M227.79 207.681l22.98-7.323 20.708-7.576 22.729 3.03-8.081 10.86-30.81 8.586-21.718 7.323-10.102-1.515zM94.954 132.678l9.597 25.253-3.536 61.115-6.566 44.951-8.081 38.386-19.193 52.528-11.617 26.77-17.172 18.182-11.617 7.576-13.132 37.88 8.081 14.143 28.79-37.376 18.182-36.87 28.79-66.165 12.122-54.549 9.09-59.599 7.072-30.81-7.071-23.738-14.647-19.193z"/><path d="M28.79 232.683l19.697-9.092 26.77 9.597 54.043 25.254 23.233 23.233 59.599 22.728 74.246 17.678 88.389 6.566h76.771l16.163 13.637-19.698 9.597-34.346 6.566-19.698 8.08-15.657 15.658-24.749-13.132-52.022-23.738-40.407-13.637-37.375-7.577-28.79-6.566-42.931-21.213-32.07-26.82s-20.706-14.295-32.31-18.871c-7.472-2.947-15.592-6.715-23.503-5.321-5.52.972-14.142 9.09-14.142 9.09z"/></svg>