<?xml version="1.0" standalone="no"?>
<!DOCTYPE svg PUBLIC "-//W3C//DTD SVG 1.1//EN" "http://www.w3.org/Graphics/SVG/1.1/DTD/svg11.dtd" >
<svg xmlns="http://www.w3.org/2000/svg" xmlns:xlink="http://www.w3.org/1999/xlink" version="1.1" viewBox="0 0 256 256">
  <g transform="matrix(1 0 0 -1 0 204)">
   <path fill="currentColor"
d="M167 107q-1 -1 -6 -3q-7 -3 -9 -4q-11 -7 -21 -2q-1 1 1 2q1 0 7 2q14 5 30 12q9 31 3 38q-1 3 1 3q13 -11 10 -15l-6 -24h3q15 4 22 3q9 1 21 -14q2 -3 1 -7q-2 -3 -4 -3q-7 0 -7 -8q-15 -67 -31 -86q-3 -3 -5 -3q-1 0 -3 2q2 -2 -2 0q-18 19 -27 37q-18 -31 -52 -53
q-5 -4 -1 1t8 9q27 23 37 40q23 40 30 73zM167 18q12 -11 16 -2q12 14 23 66q6 33 -6 32q-11 -1 -25 -5q-15 -46 -28 -68q8 -13 20 -23zM107 174q12 0 23 -10q2 -6 11 -13q1 -3 0 -6q-1 -2 -4 -1q-5 0 -6 -4q-9 -31 -28 -49q-8 -5 -10 -10t-6 1q-16 13 -20 24
q-16 -22 -36 -34q-4 -2 -1 1q27 20 52 67q4 8 2 18v2q1 0 3 -1q8 -15 5 -15q-4 -4 -7 -9q-4 -7 -12 -18q-3 -4 -5 -8q7 -14 20 -19q5 -4 10 0q24 25 31 64q0 13 -22 16q-22 0 -47 -12q-8 -4 -16 -3q-2 0 -2 1q-2 1 0 2q41 15 65 16zM113 73l12 -8q2 -3 2 -4t-3 -2
q-6 -1 -9 -7l-6 -9q-5 -10 -8 -12q12 1 18 -2q4 -5 -1 -6q-4 -2 -10 0q-9 1 -30 -4q3 -2 3 -5t-3 -3q-8 -2 -17 8q-6 4 -4 12q1 2 -1 4q-3 6 -7 16q-1 3 2 1q6 -7 11 -18q4 -9 12 -12h1q15 7 24 9q-3 4 1 8t11 22l2 4q-1 3 -4 4q-28 -13 -46 -15q-4 0 0 2q21 9 32 12
q1 0 6 2q9 4 12 3z" />
  </g>

</svg>
