<?xml version="1.0" standalone="no"?>
<!DOCTYPE svg PUBLIC "-//W3C//DTD SVG 1.1//EN" "http://www.w3.org/Graphics/SVG/1.1/DTD/svg11.dtd" >
<svg xmlns="http://www.w3.org/2000/svg" xmlns:xlink="http://www.w3.org/1999/xlink" version="1.1" viewBox="0 0 256 256">
  <g transform="matrix(1 0 0 -1 0 204)">
   <path fill="currentColor"
d="M60 208q-2 2 2 1q13 -2 8 -18q-3 -19 -6 -46v-4q6 0 15 1q1 0 3 1q5 1 6 -4t-9 -4q-10 0 -15 -2q-3 -30 -3 -60q-1 -28 1 -67q0 -11 9 -20q3 -3 9 -12q0 -1 -1 -3t-2 -2q-6 5 -9 9q-4 5 -7 9q-5 8 -6 7q-7 2 -6 7q-1 2 7 4q2 15 2 33q-1 25 -1 50t2 45q-4 1 -3 3
q-1 1 3 4q-1 9 0 28q1 16 1 24q1 12 0 16zM29 124q6 -12 3 -23q-2 -6 1 -9q1 -5 -1 -7q-3 -3 -4 -2q-5 3 -8 14q-3 4 1 7q4 4 4 20q0 1 1 1t3 -1zM184 146q-8 0 -22 -2h-5l2 -2q5 -2 4 -3t-2 -3q-4 -5 -18 -20q1 0 4 1q2 0 3 1q1 3 3 3h4q3 1 5 2q3 -1 8 -2q8 6 18 18
q2 2 1 4t-5 3zM154 143q-14 -3 -31 -9q0 -1 1 -3q2 -5 4 -3q1 1 2 1t1 -2v-7q1 -7 1 -8q24 19 22 31zM121 133q-7 -4 -19 -7q3 -4 11 -15q2 -3 3 -3q2 -5 13 2q-10 6 -8 14v6v3zM165 117q-2 -1 -7 -2q-10 -3 -14 -5q8 -2 21 7zM131 104q21 -4 15 -9q-4 -7 -6 -22v-1
q3 -2 0 -6l-4 -10q4 1 8 3q4 4 15 -4l6 6q2 3 4 5q6 8 10 10q-10 4 -31 7q-4 1 1 2q40 -2 55 -15q0 -1 -1 -2l-1 -1q-6 -2 -8 1q-2 1 -5 2l-3 3q0 -2 -4 -4q-5 -2 -19 -17q17 -18 32 -27q0 -1 2 -2q7 -5 12 -4q30 1 43 -6q2 -2 0 -1q-8 -1 -16 1q-5 0 -10 -1h-9
q-14 -3 -20 4q-8 5 -19 16q-12 10 -19 16l-2 -2q-12 -7 -18 -9q-3 -1 -1 1q9 5 17 13q-7 7 -19 4q-5 -34 0 -56q0 -4 1 -4q2 -1 6 2q7 3 23 32q2 3 2 0q-3 -9 -14 -29q-2 -3 -3 -7q-5 -8 -4 -9q2 -4 -3 -5q-6 -3 -7 2q-10 13 -6 75q-6 -5 -18 -21q-4 -6 -6 -8
q-14 -20 -31 -25q-4 -1 0 1q13 7 29 27q10 13 23 30q7 9 4 13q-2 4 2 4q5 23 -5 26q-8 -3 -19 -4q-5 -2 1 7q-3 4 -10 12q-3 2 -4 7q-2 2 -2 3h4l6 2q8 4 13 6q30 11 55 15q1 -1 3 0t4 1q5 1 12 -2q8 -8 11 -12q2 -3 1 -6q0 -4 -7 -2q-4 0 -8 -3q-35 -28 -49 -20zM126 202
q-3 2 1 2q13 -6 23 -15q1 -7 -6 -6q-7 7 -9 4q-3 -2 -3 -1q-1 0 0 3q4 4 -6 13zM194 180q2 -2 10 -4q7 -2 10 -3q3 -5 -2 -6q-18 4 -38 1q-35 -7 -66 -18q-14 -5 -30 -4q-4 1 1 2q16 4 20 6q29 9 80 20q3 0 5 1q0 4 3 5t6 0h1zM184 110q0 1 3 2q14 0 12 -1q1 -3 -1 -3
q-19 -9 -44 -16q-5 -1 -1 1q34 12 31 17zM123 91q6 2 7 -2q0 -3 -7 -5h-1q-4 -1 -6 -5q-6 -9 -15 -18q-4 -4 1 -2q5 4 9 7q9 6 13 10q3 1 1 -2q-17 -19 -19 -23q-1 -2 -2 -2h-4q-2 1 -2 2q-3 1 -2 4q0 3 1 4q-1 1 1 3q6 7 12 16q1 4 -4 5q-6 -1 -17 2q-3 0 0 2q19 -1 34 4z
" />
  </g>

</svg>
